<?xml version="1.0" encoding="UTF-8"?>
<!DOCTYPE svg PUBLIC "-//W3C//DTD SVG 1.1//EN" "http://www.w3.org/Graphics/SVG/1.1/DTD/svg11.dtd">
<svg xmlns="http://www.w3.org/2000/svg" version="1.1" width="134px" height="132px" style="shape-rendering:geometricPrecision; text-rendering:geometricPrecision; image-rendering:optimizeQuality; fill-rule:evenodd; clip-rule:evenodd" xmlns:xlink="http://www.w3.org/1999/xlink">
<g><path style="opacity:0.58" fill="#8b895b" d="M 105.5,4.5 C 99.5139,3.29724 93.5139,3.29724 87.5,4.5C 90.5499,3.06476 93.8832,2.39809 97.5,2.5C 100.527,2.28653 103.193,2.9532 105.5,4.5 Z"/></g>
<g><path style="opacity:0.271" fill="#a9a874" d="M 108.5,6.5 C 109.117,6.61071 109.617,6.94404 110,7.5C 110.808,11.0267 110.641,14.3601 109.5,17.5C 109.5,16.1667 109.5,14.8333 109.5,13.5C 109.552,11.0971 109.219,8.76375 108.5,6.5 Z"/></g>
<g><path style="opacity:1" fill="#6b6742" d="M 43.5,6.5 C 43.6138,8.71791 44.2804,10.7179 45.5,12.5C 44.8333,12.5 44.5,12.8333 44.5,13.5C 43.5386,15.2646 43.2053,17.2646 43.5,19.5C 40.8333,15.1667 40.8333,10.8333 43.5,6.5 Z"/></g>
<g><path style="opacity:1" fill="#4c472f" d="M 43.5,19.5 C 44.3414,21.8121 45.3414,24.1454 46.5,26.5C 44.264,27.3891 42.264,28.7224 40.5,30.5C 41.8532,31.5237 42.5198,32.857 42.5,34.5C 38.8992,31.5092 34.8992,30.8425 30.5,32.5C 29.8333,32.5 29.5,32.1667 29.5,31.5C 31.8268,30.1413 34.1601,28.6413 36.5,27C 34.8455,26.3923 33.1789,25.8923 31.5,25.5C 31.5,25.1667 31.5,24.8333 31.5,24.5C 31.8417,23.6618 32.5084,23.3284 33.5,23.5C 36.1667,23.1667 36.1667,22.8333 33.5,22.5C 32.791,21.596 31.791,21.2627 30.5,21.5C 28.3926,20.5318 26.0593,20.1984 23.5,20.5C 23.1667,19.1667 22.8333,19.1667 22.5,20.5C 18.5342,19.2152 18.5342,17.7152 22.5,16C 25.9594,15.7234 29.2927,16.0567 32.5,17C 29.7896,15.2532 26.7896,14.2532 23.5,14C 22.2264,13.0228 22.2264,12.1894 23.5,11.5C 23.8656,10.3054 24.699,9.63874 26,9.5C 33.3891,11.5528 39.0558,15.8861 43,22.5C 43.4828,21.552 43.6495,20.552 43.5,19.5 Z"/></g>
<g><path style="opacity:1" fill="#040200" d="M 23.5,11.5 C 25.288,11.2148 26.9547,11.5481 28.5,12.5C 26.5615,13.6336 24.8948,13.3003 23.5,11.5 Z"/></g>
<g><path style="opacity:1" fill="#dba24a" d="M 57.5,18.5 C 55.7446,19.0722 54.0779,19.9055 52.5,21C 51.2264,21.9772 51.2264,22.8106 52.5,23.5C 52.1667,24.5 51.5,25.1667 50.5,25.5C 49.6364,25.2976 48.6364,24.9643 47.5,24.5C 45.8833,20.986 44.8833,17.3193 44.5,13.5C 44.5,12.8333 44.8333,12.5 45.5,12.5C 46.1792,15.7068 47.3459,18.7068 49,21.5C 48.8234,17.8035 48.4901,14.1369 48,10.5C 49.4213,13.0094 51.0879,15.3428 53,17.5C 52.3333,14.1667 51.6667,10.8333 51,7.5C 52.9606,10.4628 55.294,13.1294 58,15.5C 57.1008,12.3676 55.6008,9.36759 53.5,6.5C 57.0298,7.59177 60.1964,9.9251 63,13.5C 62,11.1667 61,8.83333 60,6.5C 63.1667,9.66667 66.3333,12.8333 69.5,16C 66.1667,16.3333 62.8333,16.6667 59.5,17C 58.5842,17.2784 57.9175,17.7784 57.5,18.5 Z"/></g>
<g><path style="opacity:0.565" fill="#9a9765" d="M 119.5,17.5 C 121.288,16.3775 123.288,16.2109 125.5,17C 126.609,18.813 125.942,19.6463 123.5,19.5C 123.611,18.8826 123.944,18.3826 124.5,18C 122.866,17.5065 121.199,17.3398 119.5,17.5 Z"/></g>
<g><path style="opacity:1" fill="#e1aa53" d="M 107.5,16.5 C 106.119,20.264 104.453,23.9307 102.5,27.5C 101.575,28.5624 100.575,28.5624 99.5,27.5C 95.5488,20.3585 89.5488,17.1919 81.5,18C 85.4031,14.0501 89.7364,11.0501 94.5,9C 91.5372,10.9606 88.8706,13.294 86.5,16C 90.8959,14.2049 95.0626,11.7049 99,8.5C 98.2797,11.2652 96.6131,13.5985 94,15.5C 93.3123,16.3317 93.479,16.9984 94.5,17.5C 97.4843,15.0164 100.318,12.3497 103,9.5C 102.101,12.6324 100.601,15.6324 98.5,18.5C 98.6667,18.8333 98.8333,19.1667 99,19.5C 101.374,17.461 103.374,15.1277 105,12.5C 105.167,12.8333 105.333,13.1667 105.5,13.5C 103.096,16.8964 101.596,20.5631 101,24.5C 102.965,21.5095 105.132,18.8428 107.5,16.5 Z"/></g>
<g><path style="opacity:1" fill="#241f14" d="M 50.5,-0.5 C 53.1667,-0.5 55.8333,-0.5 58.5,-0.5C 65.4459,1.41118 71.4459,5.07785 76.5,10.5C 79.7407,7.71311 83.4073,5.71311 87.5,4.5C 93.5139,3.29724 99.5139,3.29724 105.5,4.5C 107.027,4.42702 108.027,5.09368 108.5,6.5C 109.219,8.76375 109.552,11.0971 109.5,13.5C 107.952,13.8212 107.285,14.8212 107.5,16.5C 105.132,18.8428 102.965,21.5095 101,24.5C 101.596,20.5631 103.096,16.8964 105.5,13.5C 105.333,13.1667 105.167,12.8333 105,12.5C 103.374,15.1277 101.374,17.461 99,19.5C 98.8333,19.1667 98.6667,18.8333 98.5,18.5C 100.601,15.6324 102.101,12.6324 103,9.5C 100.318,12.3497 97.4843,15.0164 94.5,17.5C 93.479,16.9984 93.3123,16.3317 94,15.5C 96.6131,13.5985 98.2797,11.2652 99,8.5C 95.0626,11.7049 90.8959,14.2049 86.5,16C 88.8706,13.294 91.5372,10.9606 94.5,9C 89.7364,11.0501 85.4031,14.0501 81.5,18C 89.5488,17.1919 95.5488,20.3585 99.5,27.5C 99.5,27.8333 99.5,28.1667 99.5,28.5C 98.5275,26.8608 97.1942,25.5274 95.5,24.5C 91.5682,19.8772 86.5682,18.3772 80.5,20C 76.1249,21.7006 74.4582,24.8672 75.5,29.5C 74.8333,27.1667 74.1667,24.8333 73.5,22.5C 69.186,17.5875 63.8527,16.2542 57.5,18.5C 57.9175,17.7784 58.5842,17.2784 59.5,17C 62.8333,16.6667 66.1667,16.3333 69.5,16C 66.3333,12.8333 63.1667,9.66667 60,6.5C 61,8.83333 62,11.1667 63,13.5C 60.1964,9.9251 57.0298,7.59177 53.5,6.5C 55.6008,9.36759 57.1008,12.3676 58,15.5C 55.294,13.1294 52.9606,10.4628 51,7.5C 51.6667,10.8333 52.3333,14.1667 53,17.5C 51.0879,15.3428 49.4213,13.0094 48,10.5C 48.4901,14.1369 48.8234,17.8035 49,21.5C 47.3459,18.7068 46.1792,15.7068 45.5,12.5C 44.2804,10.7179 43.6138,8.71791 43.5,6.5C 44.5329,2.80032 46.8662,0.466989 50.5,-0.5 Z"/></g>
<g><path style="opacity:1" fill="#e5a541" d="M 56.5,3.5 C 56.7352,2.90326 57.2352,2.56993 58,2.5C 65.1594,4.49638 71.326,8.16305 76.5,13.5C 82.1578,8.16789 88.8245,5.33456 96.5,5C 88.4467,9.22687 81.4467,14.7269 75.5,21.5C 70.461,14.1275 64.1277,8.12754 56.5,3.5 Z"/></g>
<g><path style="opacity:0.943" fill="#5b5636" d="M 22.5,20.5 C 22.8333,20.5 23.1667,20.5 23.5,20.5C 25.6074,21.4682 27.9407,21.8016 30.5,21.5C 30.5,21.8333 30.5,22.1667 30.5,22.5C 26.8333,22.5 23.1667,22.5 19.5,22.5C 20.5,21.8333 21.5,21.1667 22.5,20.5 Z"/></g>
<g><path style="opacity:1" fill="#48462f" d="M 119.5,17.5 C 121.199,17.3398 122.866,17.5065 124.5,18C 123.944,18.3826 123.611,18.8826 123.5,19.5C 121.636,21.0138 119.636,22.3472 117.5,23.5C 115.447,23.4021 113.78,24.0687 112.5,25.5C 111.508,25.3284 110.842,25.6618 110.5,26.5C 110.167,26.5 109.833,26.5 109.5,26.5C 109.5,26.1667 109.5,25.8333 109.5,25.5C 111.963,21.6998 115.296,19.0332 119.5,17.5 Z"/></g>
<g><path style="opacity:0.992" fill="#282616" d="M 19.5,22.5 C 23.1667,22.5 26.8333,22.5 30.5,22.5C 31.5,22.5 32.5,22.5 33.5,22.5C 33.5,22.8333 33.5,23.1667 33.5,23.5C 32.5084,23.3284 31.8417,23.6618 31.5,24.5C 27.1539,24.6657 22.8206,24.499 18.5,24C 19.056,23.6174 19.3893,23.1174 19.5,22.5 Z"/></g>
<g><path style="opacity:0.635" fill="#807e53" d="M 117.5,23.5 C 121.042,23.1872 124.375,23.5206 127.5,24.5C 123.481,24.6458 119.481,24.9791 115.5,25.5C 116.167,24.8333 116.833,24.1667 117.5,23.5 Z"/></g>
<g><path style="opacity:0.133" fill="#a9a873" d="M 19.5,22.5 C 19.3893,23.1174 19.056,23.6174 18.5,24C 22.8206,24.499 27.1539,24.6657 31.5,24.5C 31.5,24.8333 31.5,25.1667 31.5,25.5C 26.7668,25.2232 22.1001,25.5565 17.5,26.5C 16.0585,24.1671 16.7252,22.8338 19.5,22.5 Z"/></g>
<g><path style="opacity:1" fill="#252110" d="M 127.5,24.5 C 127.833,24.5 128.167,24.5 128.5,24.5C 128.414,25.4959 128.748,26.3292 129.5,27C 126.854,27.4974 124.187,27.6641 121.5,27.5C 119.5,27.5 117.5,27.5 115.5,27.5C 114.209,27.7373 113.209,27.404 112.5,26.5C 112.5,26.1667 112.5,25.8333 112.5,25.5C 113.5,25.5 114.5,25.5 115.5,25.5C 119.481,24.9791 123.481,24.6458 127.5,24.5 Z"/></g>
<g><path style="opacity:0.659" fill="#999464" d="M 128.5,24.5 C 130.104,25.287 130.771,26.6203 130.5,28.5C 127.615,28.1936 124.948,28.5269 122.5,29.5C 119.287,29.19 116.287,29.5233 113.5,30.5C 112.508,30.3284 111.842,30.6618 111.5,31.5C 109.833,29.8333 108.167,28.1667 106.5,26.5C 107.609,26.4431 108.609,26.1098 109.5,25.5C 109.5,25.8333 109.5,26.1667 109.5,26.5C 109.833,27.8333 110.167,27.8333 110.5,26.5C 111.167,26.5 111.833,26.5 112.5,26.5C 113.209,27.404 114.209,27.7373 115.5,27.5C 117.5,28.8333 119.5,28.8333 121.5,27.5C 124.187,27.6641 126.854,27.4974 129.5,27C 128.748,26.3292 128.414,25.4959 128.5,24.5 Z"/></g>
<g><path style="opacity:1" fill="#413f29" d="M 122.5,29.5 C 126.917,29.0417 130.25,30.7083 132.5,34.5C 131.667,34.8333 130.833,35.1667 130,35.5C 124.337,33.8859 118.837,32.2192 113.5,30.5C 116.287,29.5233 119.287,29.19 122.5,29.5 Z"/></g>
<g><path style="opacity:1" fill="#c8964b" d="M 46.5,26.5 C 46.1706,29.8267 44.8373,32.4934 42.5,34.5C 42.5198,32.857 41.8532,31.5237 40.5,30.5C 42.264,28.7224 44.264,27.3891 46.5,26.5 Z"/></g>
<g><path style="opacity:1" fill="#605d40" d="M 29.5,31.5 C 29.5,32.1667 29.8333,32.5 30.5,32.5C 27.9238,34.8875 26.9238,37.8875 27.5,41.5C 26.8333,42.1667 26.1667,42.8333 25.5,43.5C 23.488,38.2247 24.8213,34.2247 29.5,31.5 Z"/></g>
<g><path style="opacity:0.631" fill="#858356" d="M 25.5,43.5 C 25.573,45.0269 24.9063,46.0269 23.5,46.5C 23.427,44.9731 24.0937,43.9731 25.5,43.5 Z"/></g>
<g><path style="opacity:1" fill="#282319" d="M 44.5,13.5 C 44.8833,17.3193 45.8833,20.986 47.5,24.5C 48.6364,24.9643 49.6364,25.2976 50.5,25.5C 42.3399,37.1737 40.3399,49.8404 44.5,63.5C 53.8096,64.4983 63.1429,64.8316 72.5,64.5C 72.5,61.5 72.5,58.5 72.5,55.5C 73.404,56.209 73.7373,57.209 73.5,58.5C 73.5,60.8333 73.5,63.1667 73.5,65.5C 78.5,65.5 83.5,65.5 88.5,65.5C 85.8333,66.1667 83.1667,66.8333 80.5,67.5C 78.4086,67.6816 76.4086,67.3482 74.5,66.5C 73.5713,67.6888 73.238,69.0222 73.5,70.5C 75.8421,70.5041 77.8421,71.3375 79.5,73C 83.5,73.6667 87.5,73.6667 91.5,73C 94.5952,72.0646 96.9286,70.2313 98.5,67.5C 99.1667,66.8333 99.8333,66.1667 100.5,65.5C 102.65,62.528 103.65,59.1947 103.5,55.5C 105.599,46.0861 104.265,37.0861 99.5,28.5C 99.5,28.1667 99.5,27.8333 99.5,27.5C 100.575,28.5624 101.575,28.5624 102.5,27.5C 104.453,23.9307 106.119,20.264 107.5,16.5C 107.285,14.8212 107.952,13.8212 109.5,13.5C 109.5,14.8333 109.5,16.1667 109.5,17.5C 108.216,20.4018 107.216,23.4018 106.5,26.5C 108.167,28.1667 109.833,29.8333 111.5,31.5C 114.169,33.9989 117.002,36.3323 120,38.5C 122.006,41.5358 122.84,44.8691 122.5,48.5C 122.671,51.7973 122.005,52.1306 120.5,49.5C 119.478,49.8555 118.811,50.5222 118.5,51.5C 116.906,51.9195 115.406,52.5862 114,53.5C 113.235,53.4301 112.735,53.0967 112.5,52.5C 113.71,52.0679 114.71,51.4013 115.5,50.5C 117.404,50.2624 118.738,49.2624 119.5,47.5C 120.506,40.8386 117.672,37.1719 111,36.5C 108.849,36.6431 107.182,37.6431 106,39.5C 107.541,48.877 106.208,57.877 102,66.5C 99.6303,69.0386 97.1303,71.3719 94.5,73.5C 89.9204,74.7891 85.2537,75.7891 80.5,76.5C 79.0758,78.7178 77.0758,80.2178 74.5,81C 84.7951,87.146 94.7951,86.9793 104.5,80.5C 111.078,74.3068 113.245,66.6401 111,57.5C 109.682,54.5698 109.015,51.5698 109,48.5C 109.333,48.8333 109.667,49.1667 110,49.5C 109.923,48.2624 110.089,47.2624 110.5,46.5C 111.057,48.6459 111.39,50.6459 111.5,52.5C 113.723,62.3058 112.557,71.6391 108,80.5C 102.255,85.9506 95.4219,87.9506 87.5,86.5C 81.544,86.1898 76.2107,84.1898 71.5,80.5C 64.2759,83.9598 56.6093,85.2931 48.5,84.5C 40.6156,80.9453 35.6156,74.9453 33.5,66.5C 33.2627,65.209 33.596,64.209 34.5,63.5C 36.9629,75.7961 44.4629,82.1294 57,82.5C 61.0008,82.647 64.8341,81.9804 68.5,80.5C 66.3078,79.1413 64.6411,77.3079 63.5,75C 47.5107,74.3435 39.844,66.0101 40.5,50C 41.0648,44.8111 41.7314,39.6445 42.5,34.5C 44.8373,32.4934 46.1706,29.8267 46.5,26.5C 45.3414,24.1454 44.3414,21.8121 43.5,19.5C 43.2053,17.2646 43.5386,15.2646 44.5,13.5 Z"/></g>
<g><path style="opacity:1" fill="#c0b88e" d="M 119.5,47.5 C 118.738,49.2624 117.404,50.2624 115.5,50.5C 115.5,49.5 115.5,48.5 115.5,47.5C 116.833,47.5 118.167,47.5 119.5,47.5 Z"/></g>
<g><path style="opacity:1" fill="#dbaa5a" d="M 103.5,28.5 C 105.973,28.6043 106.639,29.6043 105.5,31.5C 108.429,34.4459 108.095,35.6126 104.5,35C 105.517,36.0495 105.684,37.2161 105,38.5C 103.172,35.2372 102.672,31.9038 103.5,28.5 Z"/></g>
<g><path style="opacity:1" fill="#de9e3c" d="M 95.5,24.5 C 97.1942,25.5274 98.5275,26.8608 99.5,28.5C 104.265,37.0861 105.599,46.0861 103.5,55.5C 103.666,50.8215 103.499,46.1548 103,41.5C 99.7766,38.1383 97.2766,34.305 95.5,30C 96.3081,29.6924 96.9747,29.1924 97.5,28.5C 96.3698,27.3777 95.7031,26.0443 95.5,24.5 Z"/></g>
<g><path style="opacity:1" fill="#513a1c" d="M 73.5,22.5 C 74.1667,24.8333 74.8333,27.1667 75.5,29.5C 75.004,39.3275 74.3374,48.9942 73.5,58.5C 73.7373,57.209 73.404,56.209 72.5,55.5C 73.0084,44.5065 73.3417,33.5065 73.5,22.5 Z"/></g>
<g><path style="opacity:1" fill="#f0a52b" d="M 95.5,24.5 C 95.7031,26.0443 96.3698,27.3777 97.5,28.5C 96.9747,29.1924 96.3081,29.6924 95.5,30C 97.2766,34.305 99.7766,38.1383 103,41.5C 103.499,46.1548 103.666,50.8215 103.5,55.5C 103.65,59.1947 102.65,62.528 100.5,65.5C 96.5,65.5 92.5,65.5 88.5,65.5C 83.5,65.5 78.5,65.5 73.5,65.5C 73.5,63.1667 73.5,60.8333 73.5,58.5C 74.3374,48.9942 75.004,39.3275 75.5,29.5C 74.4582,24.8672 76.1249,21.7006 80.5,20C 86.5682,18.3772 91.5682,19.8772 95.5,24.5 Z"/></g>
<g><path style="opacity:1" fill="#f0a42c" d="M 73.5,22.5 C 73.3417,33.5065 73.0084,44.5065 72.5,55.5C 72.5,58.5 72.5,61.5 72.5,64.5C 63.1429,64.8316 53.8096,64.4983 44.5,63.5C 40.3399,49.8404 42.3399,37.1737 50.5,25.5C 51.5,25.1667 52.1667,24.5 52.5,23.5C 54.3603,22.0613 56.027,20.3947 57.5,18.5C 63.8527,16.2542 69.186,17.5875 73.5,22.5 Z"/></g>
<g><path style="opacity:1" fill="#1f180e" d="M 57.5,18.5 C 56.027,20.3947 54.3603,22.0613 52.5,23.5C 51.2264,22.8106 51.2264,21.9772 52.5,21C 54.0779,19.9055 55.7446,19.0722 57.5,18.5 Z"/></g>
<g><path style="opacity:1" fill="#8b764a" d="M 122.5,48.5 C 123.931,49.7804 124.598,51.4471 124.5,53.5C 123.175,52.0474 122.342,52.3808 122,54.5C 121.085,53.6721 120.419,52.6721 120,51.5C 119.517,52.448 119.351,53.448 119.5,54.5C 118.596,53.791 118.263,52.791 118.5,51.5C 118.811,50.5222 119.478,49.8555 120.5,49.5C 122.005,52.1306 122.671,51.7973 122.5,48.5 Z"/></g>
<g><path style="opacity:1" fill="#181409" d="M 124.5,53.5 C 124.5,53.8333 124.5,54.1667 124.5,54.5C 125.963,62.2187 125.796,69.8854 124,77.5C 123.833,76.6667 123.667,75.8333 123.5,75C 124.706,69.8282 124.706,64.6616 123.5,59.5C 122.832,61.9688 122.165,64.3021 121.5,66.5C 121.26,62.3939 120.593,58.3939 119.5,54.5C 119.351,53.448 119.517,52.448 120,51.5C 120.419,52.6721 121.085,53.6721 122,54.5C 122.342,52.3808 123.175,52.0474 124.5,53.5 Z"/></g>
<g><path style="opacity:1" fill="#e6ac50" d="M 33.5,66.5 C 35.6156,74.9453 40.6156,80.9453 48.5,84.5C 47.1667,84.5 46.5,85.1667 46.5,86.5C 42.7454,83.52 39.2454,80.1867 36,76.5C 35.5078,77.549 35.6744,78.549 36.5,79.5C 36.1543,80.6956 35.6543,80.6956 35,79.5C 32.9519,76.1873 31.9519,72.5206 32,68.5C 31.34,66.6763 30.1733,65.343 28.5,64.5C 29.8001,62.5342 30.8001,60.3676 31.5,58C 29.9877,57.4317 28.9877,55.9317 28.5,53.5C 27.596,52.791 27.2627,51.791 27.5,50.5C 27.5,49.8333 27.5,49.1667 27.5,48.5C 28.1515,47.9094 28.8182,47.2427 29.5,46.5C 30.8196,48.2701 32.3196,48.6034 34,47.5C 33.0771,51.3443 32.5771,55.3443 32.5,59.5C 32.5034,62.0254 32.8367,64.3587 33.5,66.5 Z"/></g>
<g><path style="opacity:0.996" fill="#5b5039" d="M 88.5,65.5 C 92.5,65.5 96.5,65.5 100.5,65.5C 99.8333,66.1667 99.1667,66.8333 98.5,67.5C 92.5,67.5 86.5,67.5 80.5,67.5C 83.1667,66.8333 85.8333,66.1667 88.5,65.5 Z"/></g>
<g><path style="opacity:1" fill="#f7f6f3" d="M 80.5,67.5 C 86.5,67.5 92.5,67.5 98.5,67.5C 96.9286,70.2313 94.5952,72.0646 91.5,73C 87.5,73.6667 83.5,73.6667 79.5,73C 77.8421,71.3375 75.8421,70.5041 73.5,70.5C 73.238,69.0222 73.5713,67.6888 74.5,66.5C 76.4086,67.3482 78.4086,67.6816 80.5,67.5 Z"/></g>
<g><path style="opacity:1" fill="#f1f1ed" d="M 67.5,71.5 C 58.9229,74.2429 51.5895,72.4096 45.5,66C 52.8738,64.973 60.0405,65.473 67,67.5C 68.2259,67.3552 69.3926,67.0219 70.5,66.5C 70.8333,67 71.1667,67.5 71.5,68C 70.3144,69.4121 68.981,70.5788 67.5,71.5 Z"/></g>
<g><path style="opacity:1" fill="#efa42e" d="M 18.5,62.5 C 19.3764,62.3691 20.0431,62.7025 20.5,63.5C 14.5758,67.3503 12.5758,72.6836 14.5,79.5C 14.2918,73.417 16.6251,68.5837 21.5,65C 30.4438,65.4886 32.9438,69.9886 29,78.5C 27.8333,79.6667 26.6667,80.8333 25.5,82C 29.7574,81.4683 34.0908,81.4683 38.5,82C 45.7478,86.5766 46.4144,92.0766 40.5,98.5C 49.4012,114.338 44.5679,122.338 26,122.5C 22.7999,122.344 19.6332,122.011 16.5,121.5C 7.28692,117.204 5.12025,110.538 10,101.5C 11.8333,98.3333 14.3333,95.8333 17.5,94C 3.61109,92.0486 -0.888912,84.5486 4,71.5C 4.17049,73.7148 4.83716,75.7148 6,77.5C 5.06008,67.977 9.22675,62.977 18.5,62.5 Z"/></g>
<g><path style="opacity:1" fill="#f5f08e" d="M 42.5,34.5 C 41.7314,39.6445 41.0648,44.8111 40.5,50C 39.844,66.0101 47.5107,74.3435 63.5,75C 64.6411,77.3079 66.3078,79.1413 68.5,80.5C 64.8341,81.9804 61.0008,82.647 57,82.5C 44.4629,82.1294 36.9629,75.7961 34.5,63.5C 33.5908,56.5702 34.9242,50.2369 38.5,44.5C 35.972,43.4826 35.972,42.3159 38.5,41C 37.0039,40.4926 35.8373,40.9926 35,42.5C 35,43.8333 35,45.1667 35,46.5C 31.5264,46.1871 29.0264,44.5204 27.5,41.5C 26.9238,37.8875 27.9238,34.8875 30.5,32.5C 34.8992,30.8425 38.8992,31.5092 42.5,34.5 Z"/></g>
<g><path style="opacity:0.996" fill="#473e2c" d="M 30.5,34.5 C 32.337,34.6395 32.6704,35.3061 31.5,36.5C 30.7025,36.0431 30.3691,35.3764 30.5,34.5 Z"/></g>
<g><path style="opacity:0.996" fill="#5a533a" d="M 35.5,32.5 C 37.337,32.6395 37.6704,33.3061 36.5,34.5C 35.7025,34.0431 35.3691,33.3764 35.5,32.5 Z"/></g>
<g><path style="opacity:1" fill="#ecd2d4" d="M 67.5,71.5 C 70.1873,71.3359 72.854,71.5026 75.5,72C 79.4625,73.2108 80.1291,75.2108 77.5,78C 74.5,78.6667 71.5,78.6667 68.5,78C 64.8995,76.3595 64.5662,74.1928 67.5,71.5 Z"/></g>
<g><path style="opacity:1" fill="#ece99e" d="M 94.5,73.5 C 93.9423,74.7899 92.9423,75.6232 91.5,76C 86.2001,75.5699 81.8668,77.2366 78.5,81C 87.1906,84.4052 95.8573,84.2386 104.5,80.5C 94.7951,86.9793 84.7951,87.146 74.5,81C 77.0758,80.2178 79.0758,78.7178 80.5,76.5C 85.2537,75.7891 89.9204,74.7891 94.5,73.5 Z"/></g>
<g><path style="opacity:1" fill="#322716" d="M 114.5,75.5 C 114.245,77.9674 113.245,79.9674 111.5,81.5C 111.386,78.784 112.386,76.784 114.5,75.5 Z"/></g>
<g><path style="opacity:1" fill="#241e13" d="M 27.5,48.5 C 27.5,49.1667 27.5,49.8333 27.5,50.5C 26.2966,54.331 25.2966,58.331 24.5,62.5C 24.9569,63.2975 25.6236,63.6309 26.5,63.5C 27.1667,63.8333 27.8333,64.1667 28.5,64.5C 30.1733,65.343 31.34,66.6763 32,68.5C 31.9519,72.5206 32.9519,76.1873 35,79.5C 35.6543,80.6956 36.1543,80.6956 36.5,79.5C 35.6744,78.549 35.5078,77.549 36,76.5C 39.2454,80.1867 42.7454,83.52 46.5,86.5C 46.5,88.8333 46.5,91.1667 46.5,93.5C 48.8333,93.5 51.1667,93.5 53.5,93.5C 53.5,94.5 53.5,95.5 53.5,96.5C 51.0459,96.6795 48.8792,96.0128 47,94.5C 45.395,95.1007 44.0616,96.1007 43,97.5C 43.1256,100.098 44.1256,102.431 46,104.5C 48.7295,115.435 44.5629,121.935 33.5,124C 40.1915,124.831 46.8582,124.664 53.5,123.5C 50.0757,111.682 54.0757,103.682 65.5,99.5C 69.1817,99.3347 72.8484,99.5014 76.5,100C 73.6353,100.183 70.9686,100.683 68.5,101.5C 62.1065,102.051 57.4398,105.218 54.5,111C 54.6667,111.5 54.8333,112 55,112.5C 56.4216,110.362 58.255,109.195 60.5,109C 53.939,113.865 52.939,119.532 57.5,126C 59.8098,126.497 62.1432,126.663 64.5,126.5C 62.8707,119.472 65.0373,114.139 71,110.5C 69.872,112.359 68.5387,114.359 67,116.5C 66.3333,119.833 66.3333,123.167 67,126.5C 68.5088,128.919 70.6755,129.919 73.5,129.5C 72.0813,130.451 70.4147,130.784 68.5,130.5C 65.2527,129.748 61.9194,129.248 58.5,129C 57.0577,128.623 56.0577,127.79 55.5,126.5C 40.6723,125.669 25.6723,125.169 10.5,125C 11.056,124.617 11.3893,124.117 11.5,123.5C 12.8333,123.5 14.1667,123.5 15.5,123.5C 16.9464,124.613 18.6131,124.78 20.5,124C 18.9336,123.392 17.6002,122.558 16.5,121.5C 19.6332,122.011 22.7999,122.344 26,122.5C 44.5679,122.338 49.4012,114.338 40.5,98.5C 46.4144,92.0766 45.7478,86.5766 38.5,82C 34.0908,81.4683 29.7574,81.4683 25.5,82C 26.6667,80.8333 27.8333,79.6667 29,78.5C 32.9438,69.9886 30.4438,65.4886 21.5,65C 16.6251,68.5837 14.2918,73.417 14.5,79.5C 12.5758,72.6836 14.5758,67.3503 20.5,63.5C 20.0431,62.7025 19.3764,62.3691 18.5,62.5C 19.4687,61.6906 20.3021,60.6906 21,59.5C 21.2189,60.938 21.7189,62.2713 22.5,63.5C 23.3214,60.5535 23.8214,57.5535 24,54.5C 24.7162,52.1209 25.8828,50.1209 27.5,48.5 Z"/></g>
<g><path style="opacity:1" fill="#f5f088" d="M 119.5,47.5 C 118.167,47.5 116.833,47.5 115.5,47.5C 115.5,48.5 115.5,49.5 115.5,50.5C 114.71,51.4013 113.71,52.0679 112.5,52.5C 112.167,52.5 111.833,52.5 111.5,52.5C 111.39,50.6459 111.057,48.6459 110.5,46.5C 110.089,47.2624 109.923,48.2624 110,49.5C 109.667,49.1667 109.333,48.8333 109,48.5C 109.015,51.5698 109.682,54.5698 111,57.5C 113.245,66.6401 111.078,74.3068 104.5,80.5C 95.8573,84.2386 87.1906,84.4052 78.5,81C 81.8668,77.2366 86.2001,75.5699 91.5,76C 92.9423,75.6232 93.9423,74.7899 94.5,73.5C 97.1303,71.3719 99.6303,69.0386 102,66.5C 106.208,57.877 107.541,48.877 106,39.5C 107.182,37.6431 108.849,36.6431 111,36.5C 117.672,37.1719 120.506,40.8386 119.5,47.5 Z"/></g>
<g><path style="opacity:0.996" fill="#675d3c" d="M 124.5,54.5 C 125.268,55.2625 125.768,56.2625 126,57.5C 126.667,63.5 126.667,69.5 126,75.5C 125.295,78.4757 124.129,81.1423 122.5,83.5C 122.649,82.448 122.483,81.448 122,80.5C 120.054,83.4202 117.887,86.0869 115.5,88.5C 114.375,87.3478 114.375,86.3478 115.5,85.5C 115.81,86.7383 116.31,86.7383 117,85.5C 120.512,81.1214 122.345,76.1214 122.5,70.5C 123.097,70.2648 123.43,69.7648 123.5,69C 122.491,68.6454 121.824,67.8121 121.5,66.5C 122.165,64.3021 122.832,61.9688 123.5,59.5C 124.706,64.6616 124.706,69.8282 123.5,75C 123.667,75.8333 123.833,76.6667 124,77.5C 125.796,69.8854 125.963,62.2187 124.5,54.5 Z"/></g>
<g><path style="opacity:1" fill="#a68855" d="M 116.5,73.5 C 116.128,77.2971 114.794,80.6305 112.5,83.5C 112.167,82.8333 111.833,82.1667 111.5,81.5C 113.245,79.9674 114.245,77.9674 114.5,75.5C 115.167,74.8333 115.833,74.1667 116.5,73.5 Z"/></g>
<g><path style="opacity:1" fill="#1e150a" d="M 118.5,72.5 C 118.595,75.6916 117.929,78.6916 116.5,81.5C 115.288,82.2299 114.288,83.2299 113.5,84.5C 112.893,84.3764 112.56,84.0431 112.5,83.5C 114.794,80.6305 116.128,77.2971 116.5,73.5C 116.842,72.6618 117.508,72.3284 118.5,72.5 Z"/></g>
<g><path style="opacity:1" fill="#1c130a" d="M 122.5,70.5 C 122.345,76.1214 120.512,81.1214 117,85.5C 116.31,86.7383 115.81,86.7383 115.5,85.5C 116.11,84.609 116.443,83.609 116.5,82.5C 119.208,79.0445 120.541,75.0445 120.5,70.5C 121.167,69.1667 121.833,69.1667 122.5,70.5 Z"/></g>
<g><path style="opacity:0.992" fill="#a58c60" d="M 120.5,70.5 C 120.541,75.0445 119.208,79.0445 116.5,82.5C 116.5,82.1667 116.5,81.8333 116.5,81.5C 117.929,78.6916 118.595,75.6916 118.5,72.5C 119.167,71.8333 119.833,71.1667 120.5,70.5 Z"/></g>
<g><path style="opacity:1" fill="#dfa144" d="M 118.5,51.5 C 118.263,52.791 118.596,53.791 119.5,54.5C 120.593,58.3939 121.26,62.3939 121.5,66.5C 121.824,67.8121 122.491,68.6454 123.5,69C 123.43,69.7648 123.097,70.2648 122.5,70.5C 121.833,69.1667 121.167,69.1667 120.5,70.5C 119.833,71.1667 119.167,71.8333 118.5,72.5C 117.508,72.3284 116.842,72.6618 116.5,73.5C 115.833,74.1667 115.167,74.8333 114.5,75.5C 112.386,76.784 111.386,78.784 111.5,81.5C 111.833,82.1667 112.167,82.8333 112.5,83.5C 112.56,84.0431 112.893,84.3764 113.5,84.5C 114.288,83.2299 115.288,82.2299 116.5,81.5C 116.5,81.8333 116.5,82.1667 116.5,82.5C 116.443,83.609 116.11,84.609 115.5,85.5C 114.375,86.3478 114.375,87.3478 115.5,88.5C 113.852,89.8098 112.186,91.1431 110.5,92.5C 109.406,91.132 109.74,89.9653 111.5,89C 109.24,88.9558 107.24,89.7892 105.5,91.5C 105.835,90.336 105.835,89.0026 105.5,87.5C 103.471,88.8435 101.471,90.1769 99.5,91.5C 98.365,90.5255 97.365,89.3588 96.5,88C 93.3054,87.8195 90.3054,87.3195 87.5,86.5C 95.4219,87.9506 102.255,85.9506 108,80.5C 112.557,71.6391 113.723,62.3058 111.5,52.5C 111.833,52.5 112.167,52.5 112.5,52.5C 112.735,53.0967 113.235,53.4301 114,53.5C 115.406,52.5862 116.906,51.9195 118.5,51.5 Z"/></g>
<g><path style="opacity:1" fill="#1e190f" d="M 116.5,54.5 C 117.79,55.0577 118.623,56.0577 119,57.5C 119.667,60.5 119.667,63.5 119,66.5C 117.571,62.6902 116.737,58.6902 116.5,54.5 Z"/></g>
<g><path style="opacity:1" fill="#403521" d="M 114.5,58.5 C 116.377,59.6591 116.877,61.3258 116,63.5C 114.731,62.0953 114.231,60.4286 114.5,58.5 Z"/></g>
<g><path style="opacity:1" fill="#eea530" d="M 87.5,86.5 C 90.3054,87.3195 93.3054,87.8195 96.5,88C 97.365,89.3588 98.365,90.5255 99.5,91.5C 96.8333,93.1667 94.1667,94.8333 91.5,96.5C 89.2646,96.7947 87.2646,96.4614 85.5,95.5C 87.0664,95.0237 87.3998,94.357 86.5,93.5C 84.4734,94.5133 82.4734,95.5133 80.5,96.5C 75.5251,97.9898 70.5251,98.9898 65.5,99.5C 54.0757,103.682 50.0757,111.682 53.5,123.5C 46.8582,124.664 40.1915,124.831 33.5,124C 44.5629,121.935 48.7295,115.435 46,104.5C 44.1256,102.431 43.1256,100.098 43,97.5C 44.0616,96.1007 45.395,95.1007 47,94.5C 48.8792,96.0128 51.0459,96.6795 53.5,96.5C 53.5,95.5 53.5,94.5 53.5,93.5C 51.1667,93.5 48.8333,93.5 46.5,93.5C 46.5,91.1667 46.5,88.8333 46.5,86.5C 46.5,85.1667 47.1667,84.5 48.5,84.5C 56.6093,85.2931 64.2759,83.9598 71.5,80.5C 76.2107,84.1898 81.544,86.1898 87.5,86.5 Z"/></g>
<g><path style="opacity:0.996" fill="#211a0e" d="M 101.5,86.5 C 103.379,86.3932 103.712,86.8932 102.5,88C 97.6982,89.9397 97.3649,89.4397 101.5,86.5 Z"/></g>
<g><path style="opacity:1" fill="#443e28" d="M 34.5,63.5 C 33.596,64.209 33.2627,65.209 33.5,66.5C 32.8367,64.3587 32.5034,62.0254 32.5,59.5C 32.5771,55.3443 33.0771,51.3443 34,47.5C 32.3196,48.6034 30.8196,48.2701 29.5,46.5C 28.8182,47.2427 28.1515,47.9094 27.5,48.5C 25.8828,50.1209 24.7162,52.1209 24,54.5C 23.8214,57.5535 23.3214,60.5535 22.5,63.5C 21.7189,62.2713 21.2189,60.938 21,59.5C 20.3021,60.6906 19.4687,61.6906 18.5,62.5C 9.22675,62.977 5.06008,67.977 6,77.5C 4.83716,75.7148 4.17049,73.7148 4,71.5C -0.888912,84.5486 3.61109,92.0486 17.5,94C 14.3333,95.8333 11.8333,98.3333 10,101.5C 5.12025,110.538 7.28692,117.204 16.5,121.5C 17.6002,122.558 18.9336,123.392 20.5,124C 18.6131,124.78 16.9464,124.613 15.5,123.5C 2.91916,116.806 1.25249,107.806 10.5,96.5C 7.83333,94.5 5.16667,92.5 2.5,90.5C 1.48052,88.396 0.480521,86.396 -0.5,84.5C -0.5,81.5 -0.5,78.5 -0.5,75.5C 0.217161,73.0466 1.38383,70.7133 3,68.5C 5.49129,66.7096 7.65796,64.5429 9.5,62C 12.4653,59.6703 15.632,59.1703 19,60.5C 19.5949,55.4227 21.0949,50.756 23.5,46.5C 24.9063,46.0269 25.573,45.0269 25.5,43.5C 26.1667,42.8333 26.8333,42.1667 27.5,41.5C 29.0264,44.5204 31.5264,46.1871 35,46.5C 35,45.1667 35,43.8333 35,42.5C 35.8373,40.9926 37.0039,40.4926 38.5,41C 35.972,42.3159 35.972,43.4826 38.5,44.5C 34.9242,50.2369 33.5908,56.5702 34.5,63.5 Z"/></g>
<g><path style="opacity:1" fill="#46361d" d="M 28.5,53.5 C 28.9877,55.9317 29.9877,57.4317 31.5,58C 30.8001,60.3676 29.8001,62.5342 28.5,64.5C 27.8333,64.1667 27.1667,63.8333 26.5,63.5C 26.31,59.9682 26.9767,56.6348 28.5,53.5 Z"/></g>
<g><path style="opacity:1" fill="#b58949" d="M 27.5,50.5 C 27.2627,51.791 27.596,52.791 28.5,53.5C 26.9767,56.6348 26.31,59.9682 26.5,63.5C 25.6236,63.6309 24.9569,63.2975 24.5,62.5C 25.2966,58.331 26.2966,54.331 27.5,50.5 Z"/></g>
<g><path style="opacity:1" fill="#efa52e" d="M 109.5,94.5 C 117.678,99.5022 120.511,106.836 118,116.5C 113.99,125.562 107.49,127.895 98.5,123.5C 90.6173,131.187 84.9506,129.854 81.5,119.5C 80.6168,124.372 77.9502,127.705 73.5,129.5C 70.6755,129.919 68.5088,128.919 67,126.5C 66.3333,123.167 66.3333,119.833 67,116.5C 68.5387,114.359 69.872,112.359 71,110.5C 65.0373,114.139 62.8707,119.472 64.5,126.5C 62.1432,126.663 59.8098,126.497 57.5,126C 52.939,119.532 53.939,113.865 60.5,109C 58.255,109.195 56.4216,110.362 55,112.5C 54.8333,112 54.6667,111.5 54.5,111C 57.4398,105.218 62.1065,102.051 68.5,101.5C 73.7592,101.016 78.7592,101.683 83.5,103.5C 84.7382,104.412 86.0715,104.579 87.5,104C 92.696,95.5621 100.029,92.3954 109.5,94.5 Z"/></g>
<g><path style="opacity:1" fill="#201b12" d="M 122.5,83.5 C 120.547,87.1203 117.881,90.1203 114.5,92.5C 112.989,93.5025 111.322,94.1692 109.5,94.5C 100.029,92.3954 92.696,95.5621 87.5,104C 86.0715,104.579 84.7382,104.412 83.5,103.5C 83.5,103.167 83.5,102.833 83.5,102.5C 90.2736,100.382 89.9403,99.0483 82.5,98.5C 81.5,98.1667 80.8333,97.5 80.5,96.5C 82.4734,95.5133 84.4734,94.5133 86.5,93.5C 87.3998,94.357 87.0664,95.0237 85.5,95.5C 84.9569,95.56 84.6236,95.8933 84.5,96.5C 86.9732,97.7969 89.3066,97.7969 91.5,96.5C 94.1667,94.8333 96.8333,93.1667 99.5,91.5C 101.471,90.1769 103.471,88.8435 105.5,87.5C 105.835,89.0026 105.835,90.336 105.5,91.5C 107.24,89.7892 109.24,88.9558 111.5,89C 109.74,89.9653 109.406,91.132 110.5,92.5C 112.186,91.1431 113.852,89.8098 115.5,88.5C 117.887,86.0869 120.054,83.4202 122,80.5C 122.483,81.448 122.649,82.448 122.5,83.5 Z"/></g>
<g><path style="opacity:1" fill="#976f39" d="M 85.5,95.5 C 87.2646,96.4614 89.2646,96.7947 91.5,96.5C 89.3066,97.7969 86.9732,97.7969 84.5,96.5C 84.6236,95.8933 84.9569,95.56 85.5,95.5 Z"/></g>
<g><path style="opacity:1" fill="#594425" d="M 80.5,96.5 C 80.8333,97.5 81.5,98.1667 82.5,98.5C 81.5291,99.9621 81.8624,101.295 83.5,102.5C 83.5,102.833 83.5,103.167 83.5,103.5C 78.7592,101.683 73.7592,101.016 68.5,101.5C 70.9686,100.683 73.6353,100.183 76.5,100C 72.8484,99.5014 69.1817,99.3347 65.5,99.5C 70.5251,98.9898 75.5251,97.9898 80.5,96.5 Z"/></g>
<g><path style="opacity:1" fill="#eab156" d="M 82.5,98.5 C 89.9403,99.0483 90.2736,100.382 83.5,102.5C 81.8624,101.295 81.5291,99.9621 82.5,98.5 Z"/></g>
<g><path style="opacity:0.306" fill="#9f9e6a" d="M 120.5,106.5 C 121.16,107.964 121.493,109.631 121.5,111.5C 121.684,114.205 121.017,116.538 119.5,118.5C 120.272,114.548 120.605,110.548 120.5,106.5 Z"/></g>
<g><path style="opacity:0.835" fill="#302c1b" d="M 114.5,92.5 C 114.389,93.1174 114.056,93.6174 113.5,94C 117.387,97.3654 119.72,101.532 120.5,106.5C 120.605,110.548 120.272,114.548 119.5,118.5C 119.703,120.39 119.037,121.89 117.5,123C 122.823,123.499 128.156,123.666 133.5,123.5C 133.5,124.5 133.5,125.5 133.5,126.5C 126.833,126.5 120.167,126.5 113.5,126.5C 109.881,127.244 106.215,127.577 102.5,127.5C 101.167,127.167 99.8333,126.833 98.5,126.5C 96.9731,126.427 95.9731,127.094 95.5,128.5C 90.5782,131.287 85.7448,130.953 81,127.5C 78.7021,128.727 76.5354,130.06 74.5,131.5C 72.5,131.5 70.5,131.5 68.5,131.5C 68.5,131.167 68.5,130.833 68.5,130.5C 70.4147,130.784 72.0813,130.451 73.5,129.5C 77.9502,127.705 80.6168,124.372 81.5,119.5C 84.9506,129.854 90.6173,131.187 98.5,123.5C 107.49,127.895 113.99,125.562 118,116.5C 120.511,106.836 117.678,99.5022 109.5,94.5C 111.322,94.1692 112.989,93.5025 114.5,92.5 Z"/></g>
<g><path style="opacity:0.667" fill="#49482a" d="M 11.5,123.5 C 11.3893,124.117 11.056,124.617 10.5,125C 25.6723,125.169 40.6723,125.669 55.5,126.5C 38.5,126.5 21.5,126.5 4.5,126.5C 4.5,125.5 4.5,124.5 4.5,123.5C 6.83333,123.5 9.16667,123.5 11.5,123.5 Z"/></g>
<g><path style="opacity:0.027" fill="#c5c388" d="M 98.5,126.5 C 98.0269,127.906 97.0269,128.573 95.5,128.5C 95.9731,127.094 96.9731,126.427 98.5,126.5 Z"/></g>
<g><path style="opacity:0.051" fill="#a2a16d" d="M 113.5,126.5 C 111.71,127.997 109.544,128.664 107,128.5C 105.293,128.492 103.793,128.158 102.5,127.5C 106.215,127.577 109.881,127.244 113.5,126.5 Z"/></g>
</svg>
